<svg width="80" height="80" viewBox="0 0 80 80" fill="none" xmlns="http://www.w3.org/2000/svg">
<path d="M22.6713 27.28C15.615 29.2163 11.3113 36.195 12.5563 40.96C13.8038 45.7263 18.5138 40.2975 25.57 38.36C32.6238 36.4213 39.35 38.7113 38.105 33.945C36.8588 29.1788 29.7275 25.3413 22.6713 27.28Z" fill="white"/>
<path d="M17.21 25.0587C19.3363 24.2687 19.6075 19.5375 18.475 16.3475C17.3425 13.16 14.7 11.2187 12.5738 12.0112C10.4488 12.805 9.64376 16.0325 10.7763 19.22C11.9088 22.4087 15.0825 25.8525 17.21 25.0587Z" fill="white"/>
<path d="M25.885 22.5975C28.1388 22.395 29.5938 17.8988 29.305 14.5163C29.0175 11.1363 26.9563 8.56252 24.7025 8.76127C22.4488 8.96502 20.8538 11.8688 21.1425 15.2488C21.4325 18.6288 23.6288 22.8 25.885 22.5975Z" fill="white"/>
<path d="M35.8475 12.705C33.5863 12.705 31.7538 15.455 31.7538 18.8475C31.7538 22.2425 33.5875 26.5912 35.8475 26.5912C38.11 26.5912 39.9425 22.2425 39.9425 18.8475C39.9438 15.4537 38.11 12.705 35.8475 12.705Z" fill="white"/>
<path d="M4.14749 21.4088C2.18749 22.5663 1.93999 25.8888 3.59874 28.8288C5.25374 31.7663 8.96499 34.5938 10.9237 33.435C12.8837 32.2763 12.35 27.5688 10.6937 24.6313C9.03749 21.6913 6.10499 20.25 4.14749 21.4088Z" fill="white"/>
<path d="M57.3313 55.6613C50.275 53.7225 43.1412 57.5613 41.8962 62.3263C40.6487 67.0925 47.3775 64.8025 54.4325 66.7413C61.4887 68.6788 66.1975 74.1075 67.4425 69.3413C68.69 64.5763 64.385 57.5988 57.3313 55.6613Z" fill="white"/>
<path d="M62.7925 53.4437C64.9163 54.2337 68.0925 50.79 69.225 47.6012C70.3575 44.4125 69.5525 41.185 67.4275 40.3925C65.3013 39.5987 62.6613 41.5412 61.5288 44.73C60.3963 47.9187 60.6663 52.65 62.7925 53.4437Z" fill="white"/>
<path d="M54.1188 50.9775C56.3725 51.18 58.57 47.01 58.8575 43.63C59.145 40.25 57.5538 37.345 55.3 37.1425C53.0463 36.9425 50.9863 39.5175 50.695 42.8987C50.4075 46.28 51.865 50.775 54.1188 50.9775Z" fill="white"/>
<path d="M44.1525 54.9726C46.4162 54.9726 48.2487 50.6238 48.2487 47.2288C48.2487 43.8363 46.415 41.0863 44.1525 41.0863C41.89 41.0863 40.0562 43.8363 40.0562 47.2313C40.0562 50.6238 41.8925 54.9726 44.1525 54.9726Z" fill="white"/>
<path d="M75.8537 49.79C73.8937 48.6313 70.9637 50.0725 69.3087 53.0112C67.655 55.95 67.12 60.6575 69.0762 61.8162C71.0362 62.975 74.7475 60.1475 76.4025 57.21C78.0575 54.2712 77.8112 50.9487 75.8537 49.79Z" fill="white"/>
</svg>
